# xmcd
#
# Track frame offsets:
#	150
#	21505
#	48100
#	92032
#	111170
#	133465
#	150582
#	186942
#	222420
#	243907
#
# Disc length: 3549 seconds
#
# Revision: 1
# Processed by: cddbd v1.5.1PL0 Copyright (c) Steve Scherf et al.
# Submitted via: CDex 1.50Beta5
#
DISCID=8c0ddb0a
DTITLE=さだまさし - 親展 Disc 2
DYEAR=1991
DGENRE=
TTITLE0=道化師のソネット
TTITLE1=関白宣言
TTITLE2=歳時記
TTITLE3=秋桜
TTITLE4=つゆのあとさき
TTITLE5=童話作家
TTITLE6=距離
TTITLE7=黄昏迄
TTITLE8=まほろば
TTITLE9=主人公
EXTD=
EXTT0=
EXTT1=
EXTT2=
EXTT3=
EXTT4=
EXTT5=
EXTT6=
EXTT7=
EXTT8=
EXTT9=
PLAYORDER=
